<svg width="22" height="22" viewBox="0 0 22 22" fill="none" xmlns="http://www.w3.org/2000/svg">
<path d="M17 4C17 4.66482 17 5.30748 17 5.9723C17 6.12742 17 6.28255 17 6.43767C17 6.52632 16.9798 6.54848 16.8991 6.54848C16.4957 6.54848 16.072 6.54848 15.6686 6.54848C15.4669 6.54848 15.2853 6.57064 15.0836 6.63712C14.8617 6.7036 14.7205 6.92521 14.7205 7.16897C14.7205 7.74515 14.7003 8.34349 14.7003 8.91966C14.7003 8.98615 14.7003 9.00831 14.7608 9.00831C14.7608 9.14128 14.8415 9.09695 14.9222 9.09695C15.6081 9.09695 16.2939 9.09695 16.9798 9.09695C16.9798 9.14128 17 9.1856 17 9.22992C16.9193 9.73961 16.8386 10.2271 16.7781 10.7368C16.7378 11.0028 16.6974 11.2909 16.6571 11.5568C16.6369 11.6454 16.6167 11.6676 16.536 11.6676C15.9712 11.6676 15.4063 11.6676 14.8415 11.6676C14.6801 11.6676 14.6801 11.6676 14.6801 11.8449C14.6801 14.5042 14.6801 17.1634 14.6801 19.8227C14.6801 19.867 14.6801 19.9114 14.6801 19.9778C14.6196 19.9778 14.5591 20 14.5187 20C13.6715 20 12.8242 20 11.9769 20C11.9366 20 11.9164 20 11.8761 20C11.7954 19.9778 11.755 19.9557 11.755 19.8449C11.755 17.1856 11.755 14.5042 11.755 11.8449C11.755 11.7341 11.7349 11.6897 11.6138 11.6897C11.1095 11.6897 10.6254 11.6897 10.121 11.6897C10.0202 11.6897 10 11.6676 10 11.5568C10 10.8033 10 10.0499 10 9.2964C10 9.11911 10.0605 9.05263 10.2219 9.11912C10.2622 9.11912 10.2824 9.14127 10.3228 9.14127C10.4438 9.14127 10.5447 9.14127 10.6657 9.14127C11.0086 9.14127 11.3718 9.14127 11.7147 9.14127C11.755 9.14127 11.7954 9.11912 11.8559 9.11912C11.8559 9.09696 11.8559 9.09695 11.8559 9.07479C11.8357 9.07479 11.7954 9.07479 11.7752 9.07479C11.7752 8.45429 11.755 7.8338 11.7752 7.2133C11.7954 6.54848 11.9164 5.90582 12.2392 5.3518C12.6023 4.70914 13.147 4.33241 13.7925 4.17728C14.0951 4.1108 14.3977 4.06648 14.7003 4.04432C15.4669 3.97784 16.2133 4.02216 16.9798 4.02216C17 4 17 4 17 4Z" fill="#3F4C6E"/>
<rect x="0.5" y="0.5" width="21" height="21" rx="1.5" stroke="#3F4C6E"/>
</svg>
