<svg width="22" height="22" viewBox="0 0 22 22" fill="none" xmlns="http://www.w3.org/2000/svg">
<rect x="0.5" y="0.5" width="21" height="21" rx="1.5" stroke="#3F4C6E"/>
<path fill-rule="evenodd" clip-rule="evenodd" d="M7 3C4.79086 3 3 4.79086 3 7V15C3 17.2091 4.79086 19 7 19H15C17.2091 19 19 17.2091 19 15V7C19 4.79086 17.2091 3 15 3H7ZM9.6665 5.6667C7.45737 5.6667 5.6665 7.45757 5.6665 9.66671V12.3334C5.6665 14.5425 7.45737 16.3334 9.66651 16.3334H12.3332C14.5423 16.3334 16.3332 14.5425 16.3332 12.3334V9.66671C16.3332 7.45757 14.5423 5.6667 12.3332 5.6667H9.6665ZM6.55566 9.55561C6.55566 7.89875 7.89881 6.55561 9.55566 6.55561H12.4446C14.1014 6.55561 15.4446 7.89875 15.4446 9.55561V12.4445C15.4446 14.1013 14.1014 15.4445 12.4446 15.4445H9.55567C7.89881 15.4445 6.55566 14.1013 6.55566 12.4445V9.55561ZM13.6668 10.9999C13.6668 12.4727 12.4729 13.6666 11.0002 13.6666C9.5274 13.6666 8.3335 12.4727 8.3335 10.9999C8.3335 9.52714 9.5274 8.33324 11.0002 8.33324C12.4729 8.33324 13.6668 9.52714 13.6668 10.9999ZM14.1109 8.33322C14.3564 8.33322 14.5554 8.13424 14.5554 7.88878C14.5554 7.64332 14.3564 7.44434 14.1109 7.44434C13.8655 7.44434 13.6665 7.64332 13.6665 7.88878C13.6665 8.13424 13.8655 8.33322 14.1109 8.33322ZM10.9999 12.7778C11.9818 12.7778 12.7777 11.9818 12.7777 11C12.7777 10.0181 11.9818 9.2222 10.9999 9.2222C10.0181 9.2222 9.22217 10.0181 9.22217 11C9.22217 11.9818 10.0181 12.7778 10.9999 12.7778Z" fill="#3F4C6E"/>
</svg>
