<svg width="22" height="22" viewBox="0 0 22 22" fill="none" xmlns="http://www.w3.org/2000/svg">
<path fill-rule="evenodd" clip-rule="evenodd" d="M3 5.21061C3 6.42954 3.97102 7.40056 5.18995 7.40056C6.40889 7.40056 7.40056 6.42954 7.40056 5.21061C7.40056 3.99167 6.40889 3 5.18995 3C3.97102 3 3 3.99167 3 5.21061ZM11.8425 9.56982C11.9389 9.48029 12.033 9.38848 12.1271 9.29666L12.1271 9.29664C12.3154 9.113 12.5036 8.92936 12.7102 8.76408C13.1647 8.43352 13.7019 8.2889 14.239 8.20626C15.0448 8.10296 15.8298 8.12363 16.5943 8.39221C17.5446 8.72276 18.1644 9.4252 18.5363 10.3342C18.8875 11.2433 18.9702 12.1936 18.9908 13.144C19.0046 14.3292 19 15.5236 18.9954 16.715V16.7151V16.7152C18.9931 17.3097 18.9908 17.9034 18.9908 18.4949C18.9908 18.9081 18.8049 19.094 18.3917 19.094H16.1191C15.7059 19.094 15.5199 18.8874 15.5199 18.4742C15.5199 17.9089 15.5222 17.3459 15.5245 16.7837L15.5245 16.7832V16.7832C15.5291 15.6607 15.5337 14.5412 15.5199 13.4126C15.5199 12.9994 15.4373 12.5655 15.3133 12.173C15.1274 11.5119 14.6522 11.14 13.9705 11.078C13.206 10.9954 12.6069 11.2846 12.235 11.987C11.9664 12.4829 11.8631 12.9994 11.8631 13.5572V18.4329C11.8631 18.9081 11.6772 19.094 11.202 19.094H9.07405C8.61953 19.094 8.43359 18.9081 8.43359 18.4536V8.92936C8.43359 8.4955 8.61953 8.28891 9.07405 8.28891H11.2227C11.6359 8.28891 11.8218 8.4955 11.8425 8.88804V9.56982ZM6.90475 13.7225V18.3917C6.90475 18.9288 6.71881 19.1148 6.20232 19.1148H4.17764C3.70246 19.1148 3.49586 18.9082 3.49586 18.433V8.97074C3.49586 8.51622 3.70247 8.30962 4.15698 8.30962H6.26429C6.69815 8.30962 6.90475 8.51622 6.90475 8.95008V13.7225Z" fill="#3F4C6E"/>
<rect x="0.5" y="0.5" width="21" height="21" rx="1.5" stroke="#3F4C6E"/>
</svg>
