<svg width="106" height="29" viewBox="0 0 106 29" fill="none" xmlns="http://www.w3.org/2000/svg">
<path d="M7.2265 0.393555H20.4896V16.3909L7.2265 0.393555Z" fill="#FABE54"/>
<path d="M5.75238 1.89746H19.0154V17.8948L5.75238 1.89746Z" fill="#057453"/>
<path d="M4.37689 3.76074H17.6411V19.7581L4.37689 3.76074Z" fill="#ABD36E"/>
<path d="M3.11133 5.5791H16.3744V21.5764L3.11133 5.5791Z" fill="#EE6A3A"/>
<path d="M1.73822 7.01562H15.0024V23.013L1.73822 7.01562Z" fill="#A12B5E"/>
<path d="M0 9.03027H13.2642V25.0276L0 9.03027Z" fill="#253674"/>
<path d="M23.3499 15.3405L24.4377 12.4293C25.6051 13.4553 27.3456 14.1713 29.0077 14.1713C30.9072 14.1713 31.6781 13.408 31.6781 12.382C31.6781 9.25658 23.6271 11.4032 23.6271 5.20108C23.6271 2.3621 25.5267 0 29.4627 0C31.2032 0 32.9834 0.500534 34.2701 1.47927L33.2805 4.41415C31.9951 3.53132 30.6686 3.10173 29.4428 3.10173C27.5432 3.10173 26.8122 3.96091 26.8122 5.01059C26.8122 8.08867 34.8643 5.96436 34.8643 12.0969C34.8643 14.8886 32.9448 17.2743 28.989 17.2743C26.7923 17.273 24.5769 16.4861 23.3499 15.3405Z" fill="white"/>
<path d="M49.7592 0.285156V16.9867H47.1286L40.2239 6.84726V16.9867H37.0588V0.285156H39.7093L46.594 10.4246V0.285156H49.7592Z" fill="white"/>
<path d="M62.1625 13.4081H55.7327L54.5057 16.9867H51.2213L57.3949 0.285156H60.56L66.7523 16.9867H63.3895L62.1625 13.4081ZM61.1542 10.4732L58.9587 4.07922L56.7632 10.4732H61.1542Z" fill="white"/>
<path d="M80.8961 12.4293C80.8961 15.3156 78.9965 16.9867 75.3565 16.9867H68.1957V0.285156H74.9611C78.4234 0.285156 80.2037 2.02717 80.2037 4.62705C80.2037 6.29681 79.4913 7.58558 78.3638 8.30157C79.9077 8.898 80.8961 10.33 80.8961 12.4293ZM71.3807 3.19639V7.13366H74.5658C76.1285 7.13366 76.9788 6.46628 76.9788 5.15386C76.9788 3.84144 76.1285 3.19771 74.5658 3.19771H71.3807V3.19639ZM77.6713 12.0247C77.6713 10.6177 76.7812 9.94899 75.119 9.94899H71.3807V14.0767H75.119C76.7812 14.0754 77.6713 13.4553 77.6713 12.0247Z" fill="white"/>
<path d="M83.3289 0.285156H86.5338V13.8363H93.477V16.9854H83.3289V0.285156Z" fill="white"/>
<path d="M106 13.8849V16.9867H95.2775V0.285156H105.743V3.38688H98.4625V7.01279H104.892V10.0186H98.4625V13.8836H106V13.8849Z" fill="white"/>
<path d="M52.9269 26.3314H51.0671L50.701 27.3705H49.9886L51.6625 22.8828H52.3432L54.0229 27.3705H53.3L52.9269 26.3314ZM52.6988 25.6771L51.997 23.7157L51.301 25.6771H52.6988Z" fill="white"/>
<path d="M55.6478 26.8949L55.8864 26.2472C56.1835 26.5362 56.6572 26.7412 57.1146 26.7412C57.6935 26.7412 57.938 26.4916 57.938 26.1579C57.938 25.1896 55.7273 25.8242 55.7273 24.1584C55.7273 23.4345 56.2057 22.8184 57.2257 22.8184C57.6725 22.8184 58.1404 22.9589 58.4644 23.2164L58.2468 23.8641C57.9123 23.6263 57.545 23.512 57.221 23.512C56.6467 23.512 56.4127 23.7813 56.4127 24.1216C56.4127 25.0767 58.6188 24.4553 58.6188 26.1027C58.6188 26.8213 58.1345 27.4361 57.1146 27.4361C56.5356 27.4335 55.9566 27.2154 55.6478 26.8949Z" fill="white"/>
<path d="M61.6167 25.3638V27.3699H60.9898V26.9534C60.8307 27.249 60.5219 27.4146 60.0973 27.4146C59.4493 27.4146 59.0399 26.985 59.0399 26.3885C59.0399 25.8184 59.3592 25.3691 60.2201 25.3691H60.9535V25.3178C60.9535 24.8501 60.7196 24.5743 60.247 24.5743C59.9277 24.5743 59.599 24.703 59.3861 24.9145L59.1253 24.3312C59.4283 24.0488 59.8692 23.9082 60.3266 23.9082C61.143 23.9082 61.6167 24.3759 61.6167 25.3638ZM60.9523 26.2992V25.9025H60.2669C59.8154 25.9025 59.6926 26.1074 59.6926 26.357C59.6926 26.646 59.895 26.8313 60.2342 26.8313C60.5593 26.8313 60.8401 26.6526 60.9523 26.2992Z" fill="white"/>
<path d="M64.8422 25.3638V27.3699H64.2152V26.9534C64.0562 27.249 63.7474 27.4146 63.3228 27.4146C62.6748 27.4146 62.2654 26.985 62.2654 26.3885C62.2654 25.8184 62.5847 25.3691 63.4456 25.3691H64.179V25.3178C64.179 24.8501 63.945 24.5743 63.4725 24.5743C63.1532 24.5743 62.8245 24.703 62.6116 24.9145L62.3508 24.3312C62.6537 24.0488 63.0947 23.9082 63.552 23.9082C64.3685 23.9082 64.8422 24.3759 64.8422 25.3638ZM64.1778 26.2992V25.9025H63.4924C63.0409 25.9025 62.9181 26.1074 62.9181 26.357C62.9181 26.646 63.1204 26.8313 63.4596 26.8313C63.7848 26.8313 64.0655 26.6526 64.1778 26.2992Z" fill="white"/>
<path d="M65.4426 26.8949L65.6812 26.2472C65.9783 26.5362 66.4521 26.7412 66.9094 26.7412C67.4884 26.7412 67.7329 26.4916 67.7329 26.1579C67.7329 25.1896 65.5222 25.8242 65.5222 24.1584C65.5222 23.4345 66.0006 22.8184 67.0205 22.8184C67.4673 22.8184 67.9352 22.9589 68.2592 23.2164L68.0417 23.8641C67.7071 23.6263 67.3399 23.512 67.0159 23.512C66.4415 23.512 66.2076 23.7813 66.2076 24.1216C66.2076 25.0767 68.4136 24.4553 68.4136 26.1027C68.4136 26.8213 67.9294 27.4361 66.9094 27.4361C66.3304 27.4335 65.7514 27.2154 65.4426 26.8949Z" fill="white"/>
<path d="M70.3 25.1256C70.3 23.7987 71.1504 22.8174 72.3037 22.8174C73.457 22.8174 74.3073 23.7922 74.3073 25.1256C74.3073 26.4591 73.457 27.4338 72.3037 27.4338C71.1504 27.4338 70.3 26.4525 70.3 25.1256ZM73.6114 25.1256C73.6114 24.2086 73.0534 23.5491 72.3037 23.5491C71.5539 23.5491 70.996 24.2099 70.996 25.1256C70.996 26.0426 71.5539 26.7021 72.3037 26.7021C73.0534 26.7021 73.6114 26.0426 73.6114 25.1256Z" fill="white"/>
<path d="M76.6189 23.9082V24.6715C76.5604 24.6583 76.5125 24.6518 76.4645 24.6518C75.9592 24.6518 75.6411 25.0104 75.6411 25.7093V27.3699H74.9767V23.9463H75.6095V24.4468C75.8013 24.0882 76.1464 23.9082 76.6189 23.9082Z" fill="white"/>
<path d="M79.9725 23.947V26.8516C79.9725 28.0958 79.4356 28.6593 78.4414 28.6593C77.9104 28.6593 77.384 28.4925 77.06 28.172L77.3571 27.5689C77.6074 27.8186 78.011 27.9788 78.404 27.9788C79.0309 27.9788 79.3081 27.6333 79.3081 26.9397V26.7597C79.0742 27.0671 78.7397 27.2142 78.3572 27.2142C77.5443 27.2142 76.922 26.5469 76.922 25.5537C76.922 24.5605 77.5443 23.9062 78.3572 23.9062C78.7561 23.9062 79.107 24.06 79.3409 24.4002V23.9457H79.9725V23.947ZM79.3198 25.555C79.3198 24.9783 78.9584 24.5868 78.459 24.5868C77.9537 24.5868 77.5922 24.9783 77.5922 25.555C77.5922 26.1383 77.9537 26.5364 78.459 26.5364C78.9584 26.5364 79.3198 26.1383 79.3198 25.555Z" fill="white"/>
<path d="M83.2205 25.3638V27.3699H82.5935V26.9534C82.4345 27.249 82.1257 27.4146 81.7011 27.4146C81.0531 27.4146 80.6437 26.985 80.6437 26.3885C80.6437 25.8184 80.963 25.3691 81.8239 25.3691H82.5573V25.3178C82.5573 24.8501 82.3233 24.5743 81.8508 24.5743C81.5315 24.5743 81.2028 24.703 80.9899 24.9145L80.7291 24.3312C81.032 24.0488 81.473 23.9082 81.9303 23.9082C82.7468 23.9082 83.2205 24.3759 83.2205 25.3638ZM82.5561 26.2992V25.9025H81.8707C81.4192 25.9025 81.2964 26.1074 81.2964 26.357C81.2964 26.646 81.4987 26.8313 81.8379 26.8313C82.1619 26.8313 82.4438 26.6526 82.5561 26.2992Z" fill="white"/>
<path d="M86.8664 25.4082V27.3696H86.202V25.5106C86.202 24.9011 85.9517 24.6068 85.5271 24.6068C85.0546 24.6068 84.7352 24.9536 84.7352 25.6394V27.3709H84.0709V23.9473H84.7037V24.39C84.9212 24.076 85.2674 23.9092 85.6815 23.9092C86.3611 23.9079 86.8664 24.3756 86.8664 25.4082Z" fill="white"/>
<path d="M87.6211 22.9017C87.6211 22.6324 87.8012 22.4209 88.0457 22.4209C88.2902 22.4209 88.4715 22.6193 88.4715 22.882C88.4715 23.1645 88.296 23.3826 88.0457 23.3826C87.8012 23.3826 87.6211 23.171 87.6211 22.9017ZM87.7112 23.9475H88.3755V27.3711H87.7112V23.9475Z" fill="white"/>
<path d="M91.4632 26.7294V27.3705H89.0127V26.8634L90.5695 24.5893H89.0443V23.9482H91.4199V24.454L89.8572 26.7294H91.4632Z" fill="white"/>
<path d="M94.4494 25.3638V27.3699H93.8224V26.9534C93.6633 27.249 93.3545 27.4146 92.93 27.4146C92.2819 27.4146 91.8726 26.985 91.8726 26.3885C91.8726 25.8184 92.1919 25.3691 93.0528 25.3691H93.7862V25.3178C93.7862 24.8501 93.5522 24.5743 93.0797 24.5743C92.7603 24.5743 92.4317 24.703 92.2188 24.9145L91.9579 24.3312C92.2609 24.0488 92.7019 23.9082 93.1592 23.9082C93.9768 23.9082 94.4494 24.3759 94.4494 25.3638ZM93.785 26.2992V25.9025H93.0996C92.6481 25.9025 92.5252 26.1074 92.5252 26.357C92.5252 26.646 92.7276 26.8313 93.0668 26.8313C93.392 26.8313 93.6739 26.6526 93.785 26.2992Z" fill="white"/>
<path d="M97.0065 27.1848C96.8475 27.3385 96.6077 27.416 96.3691 27.416C95.7468 27.416 95.3912 27.018 95.3912 26.2626V24.6152H94.9233V23.9741H95.3912V23.1924H96.0556V23.9741H96.8159V24.6152H96.0556V26.2429C96.0556 26.5766 96.1936 26.7552 96.4486 26.7552C96.5866 26.7552 96.72 26.7106 96.8206 26.6147L97.0065 27.1848Z" fill="white"/>
<path d="M97.4624 22.9017C97.4624 22.6324 97.6425 22.4209 97.887 22.4209C98.1315 22.4209 98.3128 22.6193 98.3128 22.882C98.3128 23.1645 98.1373 23.3826 97.887 23.3826C97.6437 23.3826 97.4624 23.171 97.4624 22.9017ZM97.5536 23.9475H98.218V27.3711H97.5536V23.9475Z" fill="white"/>
<path d="M98.8554 25.6581C98.8554 24.6321 99.4929 23.9082 100.365 23.9082C101.247 23.9082 101.88 24.6321 101.88 25.6581C101.88 26.6841 101.247 27.4146 100.365 27.4146C99.4929 27.4146 98.8554 26.6841 98.8554 25.6581ZM101.21 25.6581C101.21 25.0039 100.849 24.5874 100.364 24.5874C99.8859 24.5874 99.5245 25.0039 99.5245 25.6581C99.5245 26.3123 99.8859 26.7288 100.364 26.7288C100.849 26.7288 101.21 26.3123 101.21 25.6581Z" fill="white"/>
<path d="M105.313 25.4082V27.3696H104.648V25.5106C104.648 24.9011 104.398 24.6068 103.973 24.6068C103.501 24.6068 103.181 24.9536 103.181 25.6394V27.3709H102.517V23.9473H103.15V24.39C103.367 24.076 103.714 23.9092 104.128 23.9092C104.808 23.9079 105.313 24.3756 105.313 25.4082Z" fill="white"/>
</svg>
