<svg width="22" height="22" viewBox="0 0 22 22" fill="none" xmlns="http://www.w3.org/2000/svg">
<path d="M8.04651 14.9514C8.02326 14.9514 8 14.9514 7.97675 14.9514C7.95349 14.9514 7.93023 14.9514 7.90698 14.9514C7.88372 14.9514 7.88372 14.9514 7.86047 14.9514C7.83721 14.9514 7.83721 14.9514 7.81396 14.9514C7.67442 14.9514 7.53488 14.928 7.37209 14.8811C7.13954 14.8342 6.93023 14.7638 6.72093 14.67C6.55814 14.5997 6.39535 14.5059 6.25581 14.4121C6.02326 14.2714 5.81395 14.0838 5.62791 13.8961C5.37209 13.6382 5.16279 13.3568 5 13.0285C4.93023 12.9112 4.88372 12.794 4.83721 12.6767C4.81396 12.6298 4.81396 12.5595 4.7907 12.5126C4.93024 12.536 5.06977 12.536 5.2093 12.5595C5.23256 12.5595 5.25581 12.5595 5.27907 12.5595C5.30233 12.5595 5.32558 12.5595 5.34884 12.5595C5.41861 12.5595 5.51163 12.5595 5.5814 12.5595C5.60465 12.5595 5.62791 12.5595 5.65116 12.5595C5.67442 12.5595 5.69768 12.5595 5.72093 12.5595C5.93024 12.536 6.13954 12.5126 6.34884 12.4422C6.32558 12.4422 6.30233 12.4422 6.30233 12.4188C6.27907 12.4188 6.25581 12.4188 6.25581 12.3953C5.69767 12.2546 5.2093 11.9967 4.7907 11.6214C4.48837 11.3635 4.25581 11.0586 4.04651 10.7069C3.83721 10.3551 3.72093 9.9799 3.65116 9.58124C3.62791 9.51089 3.62791 9.44054 3.62791 9.37018C3.62791 9.34673 3.62791 9.34673 3.62791 9.32328C3.62791 9.27638 3.62791 9.22948 3.62791 9.20603C3.62791 9.15913 3.62791 9.13568 3.62791 9.08877C3.62791 9.04187 3.62791 9.01842 3.62791 8.97152H3.65116C3.83721 9.06532 4.04651 9.15913 4.25582 9.22948C4.51163 9.29983 4.74419 9.37019 5 9.39364C5.02326 9.39364 5.04651 9.39364 5.06977 9.39364C5.09303 9.39364 5.11628 9.39364 5.11628 9.39364C5.13954 9.39364 5.13954 9.39364 5.18605 9.39364C5.16279 9.37019 5.13954 9.34673 5.11628 9.34673C4.69768 9.04187 4.34884 8.64322 4.09303 8.19765C3.88372 7.82245 3.74419 7.40034 3.67442 6.95478C3.67442 6.90788 3.67442 6.86097 3.65116 6.81407C3.65116 6.79062 3.65116 6.79062 3.65116 6.76717C3.65116 6.74372 3.65116 6.74372 3.65116 6.72027C3.65116 6.69682 3.65116 6.67336 3.65116 6.64991C3.65116 6.62646 3.65116 6.62647 3.65116 6.60302C3.65116 6.50921 3.65116 6.39196 3.65116 6.29816C3.65116 6.2747 3.65116 6.25126 3.65116 6.22781C3.65116 6.20436 3.65116 6.1809 3.65116 6.1809C3.65116 6.15745 3.65116 6.15746 3.65116 6.13401C3.65116 6.11055 3.65116 6.11055 3.65116 6.0871C3.67442 5.9464 3.67442 5.8057 3.72093 5.66499C3.7907 5.36014 3.88372 5.07873 4.02326 4.79732C4.04651 4.75042 4.06977 4.70351 4.11628 4.63316C4.16279 4.68006 4.2093 4.75042 4.25582 4.79732C4.41861 4.98492 4.5814 5.17253 4.76744 5.36013C5.06977 5.66499 5.3721 5.9464 5.72093 6.20435C6.09303 6.50921 6.48837 6.76717 6.88372 7.00167C7.46512 7.35343 8.09303 7.63484 8.74419 7.8459C9.2093 8.01005 9.67442 8.1273 10.1628 8.19765C10.3256 8.22111 10.4884 8.24455 10.6512 8.268C10.7674 8.29145 10.8605 8.29146 10.9767 8.29146C11 8.29146 11.0233 8.29146 11.0233 8.29146C11.0698 8.29146 11.093 8.29146 11.1395 8.29146C11.1628 8.29146 11.186 8.29146 11.2093 8.29146C11.2326 8.29146 11.2326 8.29146 11.2558 8.29146H11.2791H11.3023C11.3023 8.29146 11.3023 8.29145 11.3256 8.268C11.3023 8.15075 11.2791 8.01005 11.2558 7.8928C11.2558 7.86935 11.2558 7.84589 11.2558 7.82244C11.2558 7.79899 11.2558 7.77555 11.2558 7.77555V7.75209C11.2558 7.72864 11.2558 7.70519 11.2558 7.68174C11.2558 7.65829 11.2558 7.63484 11.2558 7.61139C11.2558 7.54104 11.2558 7.44724 11.2558 7.37688C11.2558 7.35343 11.2558 7.32999 11.2558 7.30654C11.2558 7.28308 11.2558 7.25963 11.2558 7.25963C11.2791 7.00167 11.3256 6.74372 11.3953 6.50921C11.5349 6.01675 11.7907 5.57119 12.1163 5.17253C12.4186 4.82077 12.7907 4.53936 13.2093 4.32831C13.5349 4.16415 13.8605 4.07035 14.2326 4.02345C14.2791 4.02345 14.3256 4.02345 14.3488 4C14.3721 4 14.3721 4 14.3953 4C14.4419 4 14.4884 4 14.5116 4C14.5349 4 14.5581 4 14.6047 4C14.6977 4 14.7907 4 14.8837 4C14.907 4 14.9302 4 14.9535 4C15 4 15.0233 4 15.0698 4C15.093 4 15.1163 4 15.1163 4C15.3023 4 15.4651 4.0469 15.6512 4.0938C15.814 4.1407 16 4.21105 16.1628 4.2814C16.4884 4.42211 16.7907 4.60971 17.0465 4.86767C17.1163 4.93802 17.186 5.00838 17.2558 5.07873C17.2791 5.10218 17.3023 5.10217 17.3256 5.10217C17.5581 5.05527 17.7674 4.98492 18 4.93802C18.3953 4.82077 18.7674 4.65662 19.1163 4.49246C19.2326 4.42211 19.3488 4.37521 19.4651 4.30485C19.4651 4.30485 19.4884 4.2814 19.5116 4.2814C19.5116 4.42211 19.2093 5.03182 18.9535 5.38358C18.6977 5.71189 18.3954 5.9933 18.0465 6.20435C18.0465 6.20435 18.0233 6.20436 18.0233 6.22781H18.0465H18.0698H18.093H18.1163H18.1395H18.1628H18.186H18.2093C18.2791 6.20436 18.3488 6.20435 18.4186 6.1809C18.4186 6.1809 18.4186 6.1809 18.4419 6.1809C18.5116 6.15745 18.5581 6.15746 18.6279 6.13401C18.6279 6.13401 18.6279 6.13401 18.6512 6.13401C18.6744 6.13401 18.6977 6.11055 18.7442 6.11055C19.0698 6.0402 19.3721 5.9464 19.6744 5.82914C19.7674 5.78224 19.8605 5.75879 19.9535 5.71189C19.9767 5.71189 19.9767 5.71189 20 5.68844C19.9767 5.71189 19.9767 5.73534 19.9767 5.73534C19.7907 6.01675 19.5814 6.29816 19.3488 6.55611C19.0465 6.90787 18.6977 7.21273 18.3256 7.49414C18.3023 7.49414 18.3023 7.51759 18.2791 7.51759C18.2791 7.54104 18.2791 7.54104 18.2791 7.56449C18.2791 7.58794 18.2791 7.61139 18.2791 7.63484C18.2791 7.68174 18.2791 7.72865 18.2791 7.77555C18.2791 7.8928 18.2791 8.0335 18.2791 8.15075C18.2791 8.19765 18.2791 8.26801 18.2791 8.31491C18.2791 8.33836 18.2791 8.36181 18.2791 8.38526C18.2791 8.40871 18.2791 8.43216 18.2791 8.47906C18.2791 8.50252 18.2791 8.50251 18.2791 8.52596C18.2791 8.54941 18.2791 8.57287 18.2791 8.59632C18.2791 8.61977 18.2791 8.61976 18.2791 8.64321C18.2791 8.66667 18.2791 8.69012 18.2791 8.71357V8.73702C18.2791 8.76047 18.2791 8.78392 18.2791 8.78392V8.80737C18.2791 8.83082 18.2791 8.85427 18.2791 8.85427C18.2791 8.97152 18.2558 9.08878 18.2558 9.18258C18.2093 9.46399 18.1628 9.7454 18.1163 10.0034C18 10.5427 17.8605 11.0821 17.6512 11.5745C17.5814 11.7387 17.5116 11.8794 17.4651 12.0436C17.2558 12.5829 16.9767 13.0754 16.6512 13.5678C16.3954 13.9665 16.1163 14.3183 15.8372 14.67C15.6279 14.9045 15.4186 15.139 15.186 15.3735C14.7442 15.8191 14.2326 16.1943 13.7209 16.5226C13.5116 16.6633 13.2791 16.7806 13.0465 16.9213C12.6047 17.1558 12.1163 17.3668 11.6279 17.531C11.186 17.6717 10.7442 17.789 10.2791 17.8593C10.0233 17.9062 9.74419 17.9531 9.48837 17.9766C9.39535 17.9766 9.32558 18 9.23256 18C9.2093 18 9.18605 18 9.18605 18H9.16279C9.13953 18 9.11628 18 9.09303 18C9.06977 18 9.06977 18 9.04651 18C9.02326 18 9 18 9 18C8.97674 18 8.95349 18 8.93023 18C8.90698 18 8.88372 18 8.83721 18C8.81395 18 8.7907 18 8.76744 18C8.72093 18 8.69767 18 8.65116 18C8.48837 18 8.32558 18 8.16279 18C8.11628 18 8.06977 18 8.02326 18C8 18 7.97674 18 7.95349 18C7.93023 18 7.88372 18 7.86047 18C7.83721 18 7.83721 18 7.81396 18C7.7907 18 7.76744 18 7.74419 18C7.72093 18 7.72093 18 7.69768 18C7.67442 18 7.65116 18 7.62791 18C7.48837 18 7.3721 17.9766 7.23256 17.9766C7.02326 17.9531 6.83721 17.9296 6.62791 17.8827C6.2093 17.8124 5.7907 17.7186 5.39535 17.5779C5.16279 17.5075 4.93024 17.4137 4.67442 17.3199C4.55814 17.273 4.44186 17.2261 4.32558 17.1792C3.93024 17.0151 3.55814 16.804 3.2093 16.593C3.13954 16.5461 3.06977 16.5226 3 16.4523C3.09302 16.4288 3.16279 16.4523 3.23256 16.4757C3.25581 16.4757 3.27907 16.4757 3.27907 16.4757C3.32558 16.4757 3.37209 16.4757 3.41861 16.4757C3.44186 16.4757 3.46512 16.4757 3.48837 16.4757C3.51163 16.4757 3.53488 16.4757 3.5814 16.4757C3.62791 16.4757 3.67442 16.4757 3.72093 16.4757C3.7907 16.4757 3.83721 16.4757 3.90698 16.4757C3.95349 16.4757 4.02326 16.4757 4.06977 16.4757C4.09302 16.4757 4.11628 16.4757 4.13954 16.4757C4.16279 16.4757 4.18605 16.4757 4.23256 16.4757C4.25581 16.4757 4.25581 16.4757 4.27907 16.4757C4.30233 16.4757 4.32558 16.4757 4.34884 16.4757C4.72093 16.4523 5.09302 16.3819 5.44186 16.3116C5.81395 16.2178 6.18605 16.1005 6.53489 15.9598C6.88372 15.8191 7.2093 15.6549 7.53488 15.4439C7.62791 15.2563 7.83721 15.1156 8.04651 14.9514C8.04651 14.9514 8.02326 14.9514 8.04651 14.9514Z" fill="#3F4C6E"/>
<rect x="0.5" y="0.5" width="21" height="21" rx="1.5" stroke="#3F4C6E"/>
</svg>
